<svg xmlns="http://www.w3.org/2000/svg" width="900" height="390" viewBox="0 0 900 390"><rect width="100%" height="100%" fill="#fff"/><path d="M76 324H750" stroke="#e5e7eb"/><text x="66" y="328" text-anchor="end" font-family="system-ui,sans-serif" font-size="11" fill="#667085">0</text><path d="M76 246.33333333333334H750" stroke="#e5e7eb"/><text x="66" y="250.33333333333334" text-anchor="end" font-family="system-ui,sans-serif" font-size="11" fill="#667085">10k</text><path d="M76 168.66666666666669H750" stroke="#e5e7eb"/><text x="66" y="172.66666666666669" text-anchor="end" font-family="system-ui,sans-serif" font-size="11" fill="#667085">20k</text><path d="M76 91H750" stroke="#e5e7eb"/><text x="66" y="95" text-anchor="end" font-family="system-ui,sans-serif" font-size="11" fill="#667085">30k</text><path d="M76.0,264.4 L160.3,255.3 L244.5,254.7 L328.8,254.7 L413.0,248.3 L665.8,210.0 L750.0,210.0 L750.0,324.0 L665.8,324.0 L413.0,324.0 L328.8,324.0 L244.5,324.0 L160.3,324.0 L76.0,324.0 Z" fill="#e5703833"/><path d="M76.0,264.4 L160.3,255.3 L244.5,254.7 L328.8,254.7 L413.0,248.3 L665.8,210.0 L750.0,210.0" fill="none" stroke="#e57038" stroke-width="1.4"/><path d="M76.0,239.2 L160.3,223.7 L244.5,217.8 L328.8,216.7 L413.0,208.7 L665.8,120.3 L750.0,116.4 L750.0,210.0 L665.8,210.0 L413.0,248.3 L328.8,254.7 L244.5,254.7 L160.3,255.3 L76.0,264.4 Z" fill="#8657a633"/><path d="M76.0,239.2 L160.3,223.7 L244.5,217.8 L328.8,216.7 L413.0,208.7 L665.8,120.3 L750.0,116.4" fill="none" stroke="#8657a6" stroke-width="1.4"/><path d="M76.0,216.7 L160.3,199.3 L244.5,191.9 L328.8,189.8 L413.0,181.5 L665.8,85.9 L750.0,82.0 L750.0,116.4 L665.8,120.3 L413.0,208.7 L328.8,216.7 L244.5,217.8 L160.3,223.7 L76.0,239.2 Z" fill="#28a17633"/><path d="M76.0,216.7 L160.3,199.3 L244.5,191.9 L328.8,189.8 L413.0,181.5 L665.8,85.9 L750.0,82.0" fill="none" stroke="#28a176" stroke-width="1.4"/><path d="M76 91V324H750" fill="none" stroke="#98a2b3"/><text x="76" y="344" text-anchor="middle" font-family="system-ui,sans-serif" font-size="10" fill="#667085">2026-09-23</text><text x="160.25" y="344" text-anchor="middle" font-family="system-ui,sans-serif" font-size="10" fill="#667085">2026-09-24</text><text x="244.5" y="344" text-anchor="middle" font-family="system-ui,sans-serif" font-size="10" fill="#667085">2026-09-25</text><text x="328.75" y="344" text-anchor="middle" font-family="system-ui,sans-serif" font-size="10" fill="#667085">2026-09-26</text><text x="413" y="344" text-anchor="middle" font-family="system-ui,sans-serif" font-size="10" fill="#667085">2026-09-27</text><text x="665.75" y="344" text-anchor="middle" font-family="system-ui,sans-serif" font-size="10" fill="#667085">2026-09-30</text><text x="750" y="344" text-anchor="middle" font-family="system-ui,sans-serif" font-size="10" fill="#667085">2026-10-01</text><text x="76" y="42" font-family="system-ui,sans-serif" font-size="20" font-weight="700" fill="#172033">Codebase growth</text><text x="76" y="64" font-family="system-ui,sans-serif" font-size="12" fill="#667085">Physical source lines · daily snapshots · latest 90 days</text><rect x="765" y="103" width="12" height="12" fill="#e57038"/><text x="785" y="113" font-family="system-ui,sans-serif" font-size="10" fill="#344054">Rust impl</text><text x="891" y="113" text-anchor="end" font-family="system-ui,sans-serif" font-size="10" fill="#172033">14,679</text><rect x="765" y="132" width="12" height="12" fill="#8657a6"/><text x="785" y="142" font-family="system-ui,sans-serif" font-size="10" fill="#344054">JS / TS impl</text><text x="891" y="142" text-anchor="end" font-family="system-ui,sans-serif" font-size="10" fill="#172033">12,046</text><rect x="765" y="161" width="12" height="12" fill="#28a176"/><text x="785" y="171" font-family="system-ui,sans-serif" font-size="10" fill="#344054">tests</text><text x="891" y="171" text-anchor="end" font-family="system-ui,sans-serif" font-size="10" fill="#172033">4,432</text><text x="765" y="280" font-family="system-ui,sans-serif" font-size="11" fill="#667085">Today</text><text x="765" y="299" font-family="system-ui,sans-serif" font-size="15" font-weight="700" fill="#172033">31k lines</text><text x="765" y="316" font-family="system-ui,sans-serif" font-size="10" fill="#667085">999189c</text></svg>
