<svg xmlns="http://www.w3.org/2000/svg" width="900" height="390" viewBox="0 0 900 390"><rect width="100%" height="100%" fill="#fff"/><path d="M76 324H750" stroke="#e5e7eb"/><text x="66" y="328" text-anchor="end" font-family="system-ui,sans-serif" font-size="11" fill="#667085">0</text><path d="M76 246.33333333333334H750" stroke="#e5e7eb"/><text x="66" y="250.33333333333334" text-anchor="end" font-family="system-ui,sans-serif" font-size="11" fill="#667085">10k</text><path d="M76 168.66666666666669H750" stroke="#e5e7eb"/><text x="66" y="172.66666666666669" text-anchor="end" font-family="system-ui,sans-serif" font-size="11" fill="#667085">20k</text><path d="M76 91H750" stroke="#e5e7eb"/><text x="66" y="95" text-anchor="end" font-family="system-ui,sans-serif" font-size="11" fill="#667085">30k</text><path d="M76.0,264.4 L150.9,255.3 L225.8,254.7 L300.7,254.7 L375.6,248.3 L600.2,210.0 L675.1,210.0 L750.0,209.1 L750.0,324.0 L675.1,324.0 L600.2,324.0 L375.6,324.0 L300.7,324.0 L225.8,324.0 L150.9,324.0 L76.0,324.0 Z" fill="#e5703833"/><path d="M76.0,264.4 L150.9,255.3 L225.8,254.7 L300.7,254.7 L375.6,248.3 L600.2,210.0 L675.1,210.0 L750.0,209.1" fill="none" stroke="#e57038" stroke-width="1.4"/><path d="M76.0,239.2 L150.9,223.7 L225.8,217.8 L300.7,216.7 L375.6,208.7 L600.2,120.3 L675.1,116.1 L750.0,114.8 L750.0,209.1 L675.1,210.0 L600.2,210.0 L375.6,248.3 L300.7,254.7 L225.8,254.7 L150.9,255.3 L76.0,264.4 Z" fill="#8657a633"/><path d="M76.0,239.2 L150.9,223.7 L225.8,217.8 L300.7,216.7 L375.6,208.7 L600.2,120.3 L675.1,116.1 L750.0,114.8" fill="none" stroke="#8657a6" stroke-width="1.4"/><path d="M76.0,216.7 L150.9,199.3 L225.8,191.9 L300.7,189.8 L375.6,181.5 L600.2,85.9 L675.1,81.7 L750.0,80.4 L750.0,114.8 L675.1,116.1 L600.2,120.3 L375.6,208.7 L300.7,216.7 L225.8,217.8 L150.9,223.7 L76.0,239.2 Z" fill="#28a17633"/><path d="M76.0,216.7 L150.9,199.3 L225.8,191.9 L300.7,189.8 L375.6,181.5 L600.2,85.9 L675.1,81.7 L750.0,80.4" fill="none" stroke="#28a176" stroke-width="1.4"/><path d="M76 91V324H750" fill="none" stroke="#98a2b3"/><text x="76" y="344" text-anchor="middle" font-family="system-ui,sans-serif" font-size="10" fill="#667085">2026-09-23</text><text x="150.88888888888889" y="344" text-anchor="middle" font-family="system-ui,sans-serif" font-size="10" fill="#667085">2026-09-24</text><text x="225.77777777777777" y="344" text-anchor="middle" font-family="system-ui,sans-serif" font-size="10" fill="#667085">2026-09-25</text><text x="300.66666666666663" y="344" text-anchor="middle" font-family="system-ui,sans-serif" font-size="10" fill="#667085">2026-09-26</text><text x="375.55555555555554" y="344" text-anchor="middle" font-family="system-ui,sans-serif" font-size="10" fill="#667085">2026-09-27</text><text x="600.2222222222223" y="344" text-anchor="middle" font-family="system-ui,sans-serif" font-size="10" fill="#667085">2026-09-30</text><text x="675.1111111111111" y="344" text-anchor="middle" font-family="system-ui,sans-serif" font-size="10" fill="#667085">2026-10-01</text><text x="750" y="344" text-anchor="middle" font-family="system-ui,sans-serif" font-size="10" fill="#667085">2026-10-02</text><text x="76" y="42" font-family="system-ui,sans-serif" font-size="20" font-weight="700" fill="#172033">Codebase growth</text><text x="76" y="64" font-family="system-ui,sans-serif" font-size="12" fill="#667085">Physical source lines · daily snapshots · latest 90 days</text><rect x="765" y="103" width="12" height="12" fill="#e57038"/><text x="785" y="113" font-family="system-ui,sans-serif" font-size="10" fill="#344054">Rust impl</text><text x="891" y="113" text-anchor="end" font-family="system-ui,sans-serif" font-size="10" fill="#172033">14,798</text><rect x="765" y="132" width="12" height="12" fill="#8657a6"/><text x="785" y="142" font-family="system-ui,sans-serif" font-size="10" fill="#344054">JS / TS impl</text><text x="891" y="142" text-anchor="end" font-family="system-ui,sans-serif" font-size="10" fill="#172033">12,137</text><rect x="765" y="161" width="12" height="12" fill="#28a176"/><text x="785" y="171" font-family="system-ui,sans-serif" font-size="10" fill="#344054">tests</text><text x="891" y="171" text-anchor="end" font-family="system-ui,sans-serif" font-size="10" fill="#172033">4,432</text><text x="765" y="280" font-family="system-ui,sans-serif" font-size="11" fill="#667085">Today</text><text x="765" y="299" font-family="system-ui,sans-serif" font-size="15" font-weight="700" fill="#172033">31k lines</text><text x="765" y="316" font-family="system-ui,sans-serif" font-size="10" fill="#667085">c064de1</text></svg>
