<svg xmlns="http://www.w3.org/2000/svg" width="900" height="390" viewBox="0 0 900 390"><rect width="100%" height="100%" fill="#fff"/><path d="M76 324H750" stroke="#e5e7eb"/><text x="66" y="328" text-anchor="end" font-family="system-ui,sans-serif" font-size="11" fill="#667085">0</text><path d="M76 265.75H750" stroke="#e5e7eb"/><text x="66" y="269.75" text-anchor="end" font-family="system-ui,sans-serif" font-size="11" fill="#667085">5k</text><path d="M76 207.5H750" stroke="#e5e7eb"/><text x="66" y="211.5" text-anchor="end" font-family="system-ui,sans-serif" font-size="11" fill="#667085">10k</text><path d="M76 149.25H750" stroke="#e5e7eb"/><text x="66" y="153.25" text-anchor="end" font-family="system-ui,sans-serif" font-size="11" fill="#667085">15k</text><path d="M76 91H750" stroke="#e5e7eb"/><text x="66" y="95" text-anchor="end" font-family="system-ui,sans-serif" font-size="11" fill="#667085">20k</text><path d="M76.0,234.6 L244.5,221.0 L413.0,220.1 L581.5,220.0 L750.0,211.6 L750.0,324.0 L581.5,324.0 L413.0,324.0 L244.5,324.0 L76.0,324.0 Z" fill="#e5703833"/><path d="M76.0,234.6 L244.5,221.0 L413.0,220.1 L581.5,220.0 L750.0,211.6" fill="none" stroke="#e57038" stroke-width="1.4"/><path d="M76.0,196.8 L244.5,173.6 L413.0,164.7 L581.5,163.0 L750.0,154.0 L750.0,211.6 L581.5,220.0 L413.0,220.1 L244.5,221.0 L76.0,234.6 Z" fill="#8657a633"/><path d="M76.0,196.8 L244.5,173.6 L413.0,164.7 L581.5,163.0 L750.0,154.0" fill="none" stroke="#8657a6" stroke-width="1.4"/><path d="M76.0,163.0 L244.5,136.9 L413.0,125.9 L581.5,122.8 L750.0,113.3 L750.0,154.0 L581.5,163.0 L413.0,164.7 L244.5,173.6 L76.0,196.8 Z" fill="#28a17633"/><path d="M76.0,163.0 L244.5,136.9 L413.0,125.9 L581.5,122.8 L750.0,113.3" fill="none" stroke="#28a176" stroke-width="1.4"/><path d="M76 91V324H750" fill="none" stroke="#98a2b3"/><text x="76" y="344" text-anchor="middle" font-family="system-ui,sans-serif" font-size="10" fill="#667085">2026-09-23</text><text x="244.5" y="344" text-anchor="middle" font-family="system-ui,sans-serif" font-size="10" fill="#667085">2026-09-24</text><text x="413" y="344" text-anchor="middle" font-family="system-ui,sans-serif" font-size="10" fill="#667085">2026-09-25</text><text x="581.5" y="344" text-anchor="middle" font-family="system-ui,sans-serif" font-size="10" fill="#667085">2026-09-26</text><text x="750" y="344" text-anchor="middle" font-family="system-ui,sans-serif" font-size="10" fill="#667085">2026-09-27</text><text x="76" y="42" font-family="system-ui,sans-serif" font-size="20" font-weight="700" fill="#172033">Codebase growth</text><text x="76" y="64" font-family="system-ui,sans-serif" font-size="12" fill="#667085">Physical source lines · daily snapshots · latest 90 days</text><rect x="765" y="103" width="12" height="12" fill="#e57038"/><text x="785" y="113" font-family="system-ui,sans-serif" font-size="10" fill="#344054">Rust impl</text><text x="891" y="113" text-anchor="end" font-family="system-ui,sans-serif" font-size="10" fill="#172033">9,650</text><rect x="765" y="132" width="12" height="12" fill="#8657a6"/><text x="785" y="142" font-family="system-ui,sans-serif" font-size="10" fill="#344054">JS / TS impl</text><text x="891" y="142" text-anchor="end" font-family="system-ui,sans-serif" font-size="10" fill="#172033">4,946</text><rect x="765" y="161" width="12" height="12" fill="#28a176"/><text x="785" y="171" font-family="system-ui,sans-serif" font-size="10" fill="#344054">tests</text><text x="891" y="171" text-anchor="end" font-family="system-ui,sans-serif" font-size="10" fill="#172033">3,492</text><text x="765" y="280" font-family="system-ui,sans-serif" font-size="11" fill="#667085">Today</text><text x="765" y="299" font-family="system-ui,sans-serif" font-size="15" font-weight="700" fill="#172033">18k lines</text><text x="765" y="316" font-family="system-ui,sans-serif" font-size="10" fill="#667085">82e03a1</text></svg>
