<svg xmlns="http://www.w3.org/2000/svg" width="900" height="390" viewBox="0 0 900 390"><rect width="100%" height="100%" fill="#fff"/><text x="56" y="42" font-family="system-ui,sans-serif" font-size="22" font-weight="700" fill="#172033">Native Rust coverage</text><text x="56" y="67" font-family="system-ui,sans-serif" font-size="12" fill="#667085">cargo llvm-cov: workspace excluding sakimori-worker; tests.rs ignored; inline tests remain instrumented</text><path d="M70 105V310H860" fill="none" stroke="#98a2b3"/><path d="M70 310H860" stroke="#eaecf0"/><text x="60" y="314" text-anchor="end" font-family="system-ui,sans-serif" font-size="11" fill="#667085">0%</text><path d="M70 258.75H860" stroke="#eaecf0"/><text x="60" y="262.75" text-anchor="end" font-family="system-ui,sans-serif" font-size="11" fill="#667085">25%</text><path d="M70 207.5H860" stroke="#eaecf0"/><text x="60" y="211.5" text-anchor="end" font-family="system-ui,sans-serif" font-size="11" fill="#667085">50%</text><path d="M70 156.25H860" stroke="#eaecf0"/><text x="60" y="160.25" text-anchor="end" font-family="system-ui,sans-serif" font-size="11" fill="#667085">75%</text><path d="M70 105H860" stroke="#eaecf0"/><text x="60" y="109" text-anchor="end" font-family="system-ui,sans-serif" font-size="11" fill="#667085">100%</text><polyline points="465,132.47989276139413" fill="none" stroke="#2563eb" stroke-width="3"/><circle cx="465" cy="132.47989276139413" r="3.5" fill="#2563eb"/><rect x="70" y="355" width="12" height="12" fill="#2563eb"/><text x="88" y="366" font-family="system-ui,sans-serif" font-size="12" fill="#344054">lines</text><polyline points="465,147.52972529725298" fill="none" stroke="#f59e0b" stroke-width="3"/><circle cx="465" cy="147.52972529725298" r="3.5" fill="#f59e0b"/><rect x="275" y="355" width="12" height="12" fill="#f59e0b"/><text x="88" y="366" font-family="system-ui,sans-serif" font-size="12" fill="#344054">regions</text><text x="465" y="330" text-anchor="middle" font-family="system-ui,sans-serif" font-size="10" fill="#667085">2026-09-23</text></svg>
