<svg xmlns="http://www.w3.org/2000/svg" width="900" height="390" viewBox="0 0 900 390"><rect width="100%" height="100%" fill="#fff"/><path d="M76 324H820" stroke="#e5e7eb"/><text x="66" y="328" text-anchor="end" font-family="system-ui,sans-serif" font-size="11" fill="#667085">0%</text><path d="M76 265.75H820" stroke="#e5e7eb"/><text x="66" y="269.75" text-anchor="end" font-family="system-ui,sans-serif" font-size="11" fill="#667085">25%</text><path d="M76 207.5H820" stroke="#e5e7eb"/><text x="66" y="211.5" text-anchor="end" font-family="system-ui,sans-serif" font-size="11" fill="#667085">50%</text><path d="M76 149.25H820" stroke="#e5e7eb"/><text x="66" y="153.25" text-anchor="end" font-family="system-ui,sans-serif" font-size="11" fill="#667085">75%</text><path d="M76 91H820" stroke="#e5e7eb"/><text x="66" y="95" text-anchor="end" font-family="system-ui,sans-serif" font-size="11" fill="#667085">100%</text><path d="M76.0,151.3 L820.0,151.3" fill="none" stroke="#2563eb" stroke-width="2.5" stroke-linejoin="round" stroke-linecap="round"/><circle cx="76" cy="151.2650844730491" r="3.5" fill="#2563eb"/><circle cx="820" cy="151.2650844730491" r="3.5" fill="#2563eb"/><path d="M76.0,153.2 L820.0,153.2" fill="none" stroke="#f59e0b" stroke-width="2.5" stroke-linejoin="round" stroke-linecap="round"/><circle cx="76" cy="153.1609604268564" r="3.5" fill="#f59e0b"/><circle cx="820" cy="153.1609604268564" r="3.5" fill="#f59e0b"/><path d="M76 91V324H820" fill="none" stroke="#98a2b3"/><text x="76" y="344" text-anchor="middle" font-family="system-ui,sans-serif" font-size="10" fill="#667085">2026-09-23</text><text x="820" y="344" text-anchor="middle" font-family="system-ui,sans-serif" font-size="10" fill="#667085">2026-09-24</text><text x="76" y="42" font-family="system-ui,sans-serif" font-size="20" font-weight="700" fill="#172033">Native Rust coverage</text><text x="76" y="64" font-family="system-ui,sans-serif" font-size="12" fill="#667085">cargo llvm-cov: workspace excluding mikaki-browser-wasm and mikaki-worker; tests.rs ignored; inline tests remain instrumented</text><path d="M76 366h18" stroke="#2563eb" stroke-width="3"/><text x="100" y="370" font-family="system-ui,sans-serif" font-size="11" fill="#344054">lines</text><path d="M246 366h18" stroke="#f59e0b" stroke-width="3"/><text x="270" y="370" font-family="system-ui,sans-serif" font-size="11" fill="#344054">regions</text></svg>
